
<svg xmlns="http://www.w3.org/2000/svg" width="1782" height="1724" viewBox="0 0 1782 1724" version="1.1"><path d="" stroke="none" fill="#2c1c1c" fill-rule="evenodd"/><path d="M 0 862 C 0 1724, 0 1724, 174 1724 C 269.700 1724, 347.997 1723.662, 347.993 1723.250 C 347.989 1722.838, 344.727 1721.714, 340.743 1720.753 C 309.031 1713.107, 276.951 1682.657, 266.434 1650.222 C 260.071 1630.598, 260.500 1666.560, 260.500 1152.834 C 260.500 702.452, 260.423 682.121, 258.718 681.056 C 257.738 680.444, 253.198 679.291, 248.630 678.495 C 244.061 677.698, 237.438 675.721, 233.912 674.102 C 230.385 672.483, 223.982 669.718, 219.682 667.957 C 197.212 658.758, 175.517 634.781, 162.383 604.632 C 157.176 592.679, 156.524 589, 159.614 589 C 160.383 589, 161.991 590.125, 163.187 591.500 C 164.382 592.875, 165.955 594, 166.680 594 C 167.406 594, 168.019 594.563, 168.043 595.250 C 168.083 596.438, 177.092 604, 178.466 604 C 178.825 604, 182.804 605.780, 187.309 607.956 C 208.536 618.206, 225.062 618.543, 256.430 609.365 C 278.892 602.792, 293.034 595.134, 301.567 584.920 C 303.562 582.532, 305.844 580.103, 306.639 579.522 C 307.433 578.941, 308.627 577.511, 309.292 576.343 C 309.956 575.175, 313.683 569.783, 317.573 564.360 C 333.787 541.756, 349.474 510.031, 356.540 485.551 C 358.011 480.458, 361.080 473.693, 362.690 472 C 362.952 471.725, 402.256 471.275, 450.033 471 C 553.287 470.406, 539.239 476.478, 539.563 432.300 C 539.996 373.356, 548.632 335.183, 565.929 315.762 C 573.978 306.725, 624.558 269.249, 636.884 263.191 C 639.845 261.735, 642.766 259.747, 643.374 258.772 C 643.983 257.798, 645.096 257, 645.847 257 C 647.275 257, 652.538 253.102, 658.002 247.998 C 659.767 246.349, 661.791 245, 662.500 245 C 663.209 245, 665.234 243.650, 667 242 C 668.766 240.350, 670.839 239, 671.606 239 C 672.373 239, 673.900 238.100, 675 237 C 676.100 235.900, 677.900 235, 679 235 C 680.100 235, 681 234.550, 681 234 C 681 233.450, 681.590 233, 682.311 233 C 683.033 233, 684.589 232.100, 685.770 231 C 686.950 229.900, 688.798 229, 689.875 229 C 690.952 229, 691.983 228.662, 692.167 228.250 C 692.350 227.838, 694.975 226.199, 698 224.608 C 701.025 223.018, 704.429 220.881, 705.564 219.858 C 706.700 218.836, 708.065 218, 708.597 218 C 710.318 218, 723 210.897, 723 209.933 C 723 209.420, 723.718 209, 724.596 209 C 726.499 209, 732 205.250, 732 203.952 C 732 202.911, 724.738 199.003, 722.790 198.995 C 720.469 198.986, 711.740 191.580, 709.849 188.016 C 700.361 170.133, 729.003 95.473, 747.874 88.894 C 751.681 87.567, 760 91.925, 760 95.245 C 760 96.116, 768.791 108.998, 770.070 110 C 776.645 115.154, 793.632 171.444, 791.393 180.659 C 789.339 189.117, 782.415 197.120, 773.729 201.078 C 768.444 203.486, 770.220 205.255, 789.250 216.537 C 799.288 222.488, 808.400 228.069, 809.500 228.939 C 810.600 229.809, 813.188 231.375, 815.250 232.418 C 817.313 233.461, 819 234.643, 819 235.044 C 819 235.444, 822.263 237.698, 826.250 240.053 C 830.238 242.407, 836.686 246.470, 840.579 249.082 C 844.473 251.694, 849.222 254.484, 851.133 255.282 C 855.498 257.106, 880.222 273.782, 881.300 275.630 C 881.740 276.383, 882.667 277, 883.361 277 C 884.055 277, 885.700 278.013, 887.017 279.250 C 890.215 282.256, 898.287 288, 899.313 288 C 908.245 288, 944.285 327.185, 946.545 339.353 C 946.939 341.472, 948.771 346.309, 950.617 350.101 C 953.158 355.322, 954.327 359.605, 955.434 367.748 C 956.238 373.661, 957.598 382.325, 958.456 387 C 960.467 397.958, 961.071 409.482, 961.323 441.680 C 961.584 475.079, 948.723 471.015, 1053.830 470.910 C 1099.662 470.865, 1137.294 470.979, 1137.458 471.164 C 1138.746 472.624, 1142 480.316, 1142 481.901 C 1142 482.991, 1142.416 484.139, 1142.924 484.453 C 1143.862 485.032, 1146.685 492.768, 1147.497 496.982 C 1149.343 506.568, 1166.976 543.466, 1177.209 559.157 C 1190.281 579.200, 1223.503 606.559, 1237.263 608.613 C 1239.593 608.961, 1246.900 610.554, 1253.500 612.155 C 1288.642 620.676, 1313.557 614.676, 1335.116 592.500 C 1346.808 580.474, 1348.336 582.264, 1340.799 599.155 C 1322.523 640.113, 1289.671 669.594, 1252.680 678.233 C 1247.829 679.365, 1242.879 681.087, 1241.680 682.058 C 1238.506 684.628, 1238.189 1281.779, 1241.353 1298 C 1248.790 1336.127, 1266.353 1361.608, 1296.101 1377.431 C 1325.256 1392.937, 1322.230 1392.784, 1601.750 1392.915 C 1782 1393, 1782 1393, 1782 1501.023 C 1782 1600.869, 1474.610 1649.661, 1113 1607.212 C 1107.775 1606.599, 1101.906 1605.883, 1099.958 1605.621 C 1080.742 1603.038, 1050.474 1581.914, 1036.737 1561.500 C 1018.226 1533.990, 1014.343 1511.439, 1015.476 1438 C 1015.845 1414.075, 1016.527 1306.300, 1016.991 1198.500 C 1017.896 988.312, 1018.328 968.873, 1022.347 957.500 C 1025.994 947.183, 1029.647 938.646, 1034.523 929.044 C 1041.853 914.611, 1044 906.800, 1044 894.574 C 1044 888.758, 1044.376 884, 1044.836 884 C 1046.907 884, 1055.356 876.222, 1057.190 872.627 C 1061.963 863.272, 1059.883 851.568, 1053.808 853.601 C 1048.193 855.479, 1039.851 851.964, 1034.539 845.482 C 1031.439 841.699, 1030.519 841.146, 1028.126 841.625 C 1024.751 842.300, 1020 837.439, 1020 833.312 C 1020 831.917, 1018.402 826.510, 1016.449 821.296 C 1014.496 816.081, 1012.436 809.269, 1011.872 806.157 C 1009.955 795.576, 1000.922 776.187, 988.149 755.232 C 985.042 750.134, 981.825 744.690, 981 743.134 C 980.175 741.577, 976.266 736.523, 972.314 731.902 C 968.361 727.281, 960.643 718.062, 955.162 711.415 C 939.844 692.838, 930.444 684.827, 889.554 655.500 C 870.769 642.027, 865.682 638.614, 852 630.306 C 845.125 626.131, 835 619.926, 829.500 616.516 C 805.293 601.512, 757.477 576.289, 751.334 575.284 C 748.922 574.889, 745.546 575.984, 737.157 579.883 C 731.100 582.697, 725.955 585, 725.722 585 C 725.349 585, 720.935 587.367, 701.500 597.987 C 677.478 611.114, 634.435 636.942, 621.721 645.859 C 570.662 681.668, 541.358 708.917, 521.554 739 C 499.507 772.491, 485.847 801.350, 481.145 824.371 C 478.490 837.369, 475.037 840.849, 453 852.731 C 449.405 854.670, 447.546 855.051, 443.759 854.627 C 431.431 853.247, 438.361 880.365, 450.877 882.479 C 457.186 883.545, 457.914 885.235, 454.705 891.365 C 450.158 900.050, 450.841 902.429, 467.663 936.500 C 481.763 965.059, 480.231 951.551, 481.160 1055.500 C 481.603 1105, 482.370 1253.950, 482.864 1386.500 C 483.762 1627.500, 483.762 1627.500, 486.325 1635.212 C 487.734 1639.453, 489.647 1645.978, 490.574 1649.712 C 494.339 1664.864, 510.735 1687.796, 524.632 1697.348 C 526.354 1698.531, 529.792 1700.950, 532.272 1702.723 C 551.212 1716.259, 575.270 1721.805, 615.750 1721.964 C 621.231 1721.985, 625 1722.408, 625 1723.001 C 625 1723.668, 818.085 1723.918, 1203.750 1723.751 C 1782.500 1723.500, 1782.500 1723.500, 1782.751 861.750 C 1783.001 0, 1783.001 -0, 891.501 -0 C 0 0, 0 0, 0 862 M 0.498 862.500 C 0.498 1336.600, 0.611 1530.700, 0.750 1293.832 C 0.889 1056.965, 0.889 669.065, 0.750 431.832 C 0.611 194.600, 0.498 388.400, 0.498 862.500" stroke="none" fill="#9c1434" fill-rule="evenodd"/></svg>